<svg width="135" height="44" viewBox="0 0 135 44" fill="none" xmlns="http://www.w3.org/2000/svg">
<path d="M11.64 33.28C9.58667 33.28 7.74667 32.9467 6.12 32.28C4.49333 31.6133 3.18667 30.6267 2.2 29.32C1.24 28.0133 0.733333 26.44 0.68 24.6H7.96C8.06667 25.64 8.42667 26.44 9.04 27C9.65333 27.5333 10.4533 27.8 11.44 27.8C12.4533 27.8 13.2533 27.5733 13.84 27.12C14.4267 26.64 14.72 25.9867 14.72 25.16C14.72 24.4667 14.48 23.8933 14 23.44C13.5467 22.9867 12.9733 22.6133 12.28 22.32C11.6133 22.0267 10.6533 21.6933 9.4 21.32C7.58667 20.76 6.10667 20.2 4.96 19.64C3.81333 19.08 2.82667 18.2533 2 17.16C1.17333 16.0667 0.76 14.64 0.76 12.88C0.76 10.2667 1.70667 8.22667 3.6 6.76C5.49333 5.26667 7.96 4.52 11 4.52C14.0933 4.52 16.5867 5.26667 18.48 6.76C20.3733 8.22667 21.3867 10.28 21.52 12.92H14.12C14.0667 12.0133 13.7333 11.3067 13.12 10.8C12.5067 10.2667 11.72 10 10.76 10C9.93333 10 9.26667 10.2267 8.76 10.68C8.25333 11.1067 8 11.7333 8 12.56C8 13.4667 8.42667 14.1733 9.28 14.68C10.1333 15.1867 11.4667 15.7333 13.28 16.32C15.0933 16.9333 16.56 17.52 17.68 18.08C18.8267 18.64 19.8133 19.4533 20.64 20.52C21.4667 21.5867 21.88 22.96 21.88 24.64C21.88 26.24 21.4667 27.6933 20.64 29C19.84 30.3067 18.6667 31.3467 17.12 32.12C15.5733 32.8933 13.7467 33.28 11.64 33.28ZM29.5294 8.36C28.3294 8.36 27.3427 8.01333 26.5694 7.32C25.8227 6.6 25.4494 5.72 25.4494 4.68C25.4494 3.61333 25.8227 2.73333 26.5694 2.04C27.3427 1.32 28.3294 0.959998 29.5294 0.959998C30.7027 0.959998 31.6627 1.32 32.4094 2.04C33.1827 2.73333 33.5694 3.61333 33.5694 4.68C33.5694 5.72 33.1827 6.6 32.4094 7.32C31.6627 8.01333 30.7027 8.36 29.5294 8.36ZM32.9294 10.68V33H26.0894V10.68H32.9294ZM46.3663 10.36C47.9396 10.36 49.3129 10.68 50.4863 11.32C51.6863 11.96 52.6063 12.8 53.2463 13.84V10.68H60.0863V32.96C60.0863 35.0133 59.6729 36.8667 58.8463 38.52C58.0463 40.2 56.8063 41.5333 55.1263 42.52C53.4729 43.5067 51.4063 44 48.9263 44C45.6196 44 42.9396 43.2133 40.8863 41.64C38.8329 40.0933 37.6596 37.9867 37.3663 35.32H44.1263C44.3396 36.1733 44.8463 36.84 45.6463 37.32C46.4463 37.8267 47.4329 38.08 48.6063 38.08C50.0196 38.08 51.1396 37.6667 51.9663 36.84C52.8196 36.04 53.2463 34.7467 53.2463 32.96V29.8C52.5796 30.84 51.6596 31.6933 50.4863 32.36C49.3129 33 47.9396 33.32 46.3663 33.32C44.5263 33.32 42.8596 32.8533 41.3663 31.92C39.8729 30.96 38.6863 29.6133 37.8063 27.88C36.9529 26.12 36.5263 24.0933 36.5263 21.8C36.5263 19.5067 36.9529 17.4933 37.8063 15.76C38.6863 14.0267 39.8729 12.6933 41.3663 11.76C42.8596 10.8267 44.5263 10.36 46.3663 10.36ZM53.2463 21.84C53.2463 20.1333 52.7663 18.7867 51.8063 17.8C50.8729 16.8133 49.7263 16.32 48.3663 16.32C47.0063 16.32 45.8463 16.8133 44.8863 17.8C43.9529 18.76 43.4863 20.0933 43.4863 21.8C43.4863 23.5067 43.9529 24.8667 44.8863 25.88C45.8463 26.8667 47.0063 27.36 48.3663 27.36C49.7263 27.36 50.8729 26.8667 51.8063 25.88C52.7663 24.8933 53.2463 23.5467 53.2463 21.84ZM78.6347 10.44C81.248 10.44 83.328 11.2933 84.8747 13C86.448 14.68 87.2347 17 87.2347 19.96V33H80.4347V20.88C80.4347 19.3867 80.048 18.2267 79.2747 17.4C78.5014 16.5733 77.4614 16.16 76.1547 16.16C74.848 16.16 73.808 16.5733 73.0347 17.4C72.2614 18.2267 71.8747 19.3867 71.8747 20.88V33H65.0347V10.68H71.8747V13.64C72.568 12.6533 73.5014 11.88 74.6747 11.32C75.848 10.7333 77.168 10.44 78.6347 10.44ZM103.904 8.36C102.704 8.36 101.718 8.01333 100.944 7.32C100.198 6.6 99.8244 5.72 99.8244 4.68C99.8244 3.61333 100.198 2.73333 100.944 2.04C101.718 1.32 102.704 0.959998 103.904 0.959998C105.078 0.959998 106.038 1.32 106.784 2.04C107.558 2.73333 107.944 3.61333 107.944 4.68C107.944 5.72 107.558 6.6 106.784 7.32C106.038 8.01333 105.078 8.36 103.904 8.36ZM107.304 10.68V33H100.464V10.68H107.304ZM125.861 10.44C128.475 10.44 130.555 11.2933 132.101 13C133.675 14.68 134.461 17 134.461 19.96V33H127.661V20.88C127.661 19.3867 127.275 18.2267 126.501 17.4C125.728 16.5733 124.688 16.16 123.381 16.16C122.075 16.16 121.035 16.5733 120.261 17.4C119.488 18.2267 119.101 19.3867 119.101 20.88V33H112.261V10.68H119.101V13.64C119.795 12.6533 120.728 11.88 121.901 11.32C123.075 10.7333 124.395 10.44 125.861 10.44Z" fill="#0093ED"/>
</svg>
