<svg width="160" height="32" viewBox="0 0 160 32" fill="none" xmlns="http://www.w3.org/2000/svg">
<g clip-path="url(#clip0_1_180)">
<path d="M15.552 10.912L15.616 12.032L14.464 11.904C10.24 11.36 6.56 9.53599 3.456 6.49599L1.92 4.95999L1.536 6.07999C0.704 8.57599 1.216 11.232 2.976 12.992C3.872 13.984 3.68 14.112 2.08 13.536C1.536 13.344 1.056 13.216 0.992 13.28C0.832 13.44 1.376 15.584 1.824 16.416C2.432 17.568 3.648 18.72 4.992 19.392L6.144 19.936L4.8 19.968C3.488 19.968 3.456 19.968 3.584 20.48C4.032 21.984 5.888 23.584 7.904 24.288L9.344 24.8L8.096 25.536C6.24 26.624 4.064 27.232 1.888 27.264C0.864 27.296 0 27.392 0 27.456C0 27.68 2.816 28.992 4.48 29.504C9.376 31.04 15.232 30.368 19.648 27.776C22.752 25.92 25.888 22.272 27.328 18.72C28.128 16.832 28.896 13.376 28.896 11.712C28.896 10.656 28.96 10.496 30.272 9.21599C31.04 8.47999 31.744 7.64799 31.872 7.42399C32.128 6.97599 32.096 6.97599 30.912 7.35999C28.96 8.06399 28.672 7.96799 29.632 6.94399C30.368 6.17599 31.232 4.83199 31.232 4.44799C31.232 4.35199 30.88 4.47999 30.464 4.70399C30.048 4.92799 29.12 5.27999 28.448 5.47199L27.2 5.88799L26.048 5.11999C25.44 4.70399 24.544 4.22399 24.096 4.09599C22.912 3.74399 21.12 3.80799 20.064 4.19199C17.152 5.21599 15.328 7.93599 15.552 10.912Z" fill="#0093ED"/>
</g>
<path d="M79.68 32C83.904 32 87.456 30.56 90.048 28.128C93.024 25.312 94.72 21.216 94.72 16.352C94.72 15.04 94.624 14.08 94.4 13.088H79.68V19.008H88.32C88.128 20.48 87.2 22.72 85.12 24.192C83.776 25.152 82.016 25.792 79.68 25.792C75.52 25.792 72 23.008 70.752 19.168C70.432 18.176 70.24 17.12 70.24 16C70.24 14.88 70.432 13.824 70.752 12.832C72 8.96 75.52 6.176 79.68 6.176C82.624 6.176 84.608 7.488 85.728 8.576L90.144 4.16C87.456 1.568 83.904 0 79.68 0C73.536 0 68.256 3.584 65.664 8.8C64.608 10.976 64 13.44 64 16C64 18.56 64.608 20.992 65.664 23.168C68.224 28.416 73.536 32 79.68 32Z" fill="#0093ED"/>
<g clip-path="url(#clip1_1_180)">
<path d="M145.92 32V16H150.336L150.944 10.464H145.92L145.952 7.71197C145.952 6.27197 146.08 5.50397 148.128 5.50397H150.912V-3.05176e-05H146.496C141.184 -3.05176e-05 139.296 2.65597 139.296 7.16797V10.464H136V16H139.296V32H145.92Z" fill="#0093ED"/>
</g>
<defs>
<clipPath id="clip0_1_180">
<rect width="32" height="32" fill="white"/>
</clipPath>
<clipPath id="clip1_1_180">
<rect width="32" height="32" fill="white" transform="translate(128)"/>
</clipPath>
</defs>
</svg>
